<svg version="1.1" id="Layer_1" xmlns="http://www.w3.org/2000/svg" xmlns:xlink="http://www.w3.org/1999/xlink" x="0px" y="0px" width="379px" height="248px" viewBox="0 0 379 248" enable-background="new 0 0 379 248" xml:space="preserve">
<g>
	<g>
		<path fill="#565F7D" d="M2,1c0.476,2.465,2.704,3.207,4.435,4.342c50.794,33.32,101.63,66.578,152.372,99.977    c3.048,2.006,4.814,2.072,7.48-0.563c3.646-3.604,7.562-7.192,11.975-9.715c9.797-5.602,20.26-3.57,30.317,4.81    c3.028,2.524,5.479,7.232,9.05,7.176c3.235-0.051,6.417-3.756,9.617-5.857c41.317-27.129,82.638-54.257,123.953-81.39    c7.225-4.744,14.451-9.486,21.643-14.281C374.742,4.23,376.911,3.221,378,1c0.627,0.412,2.151-0.972,2,1    c-1.801,1.823-0.955,4.116-0.956,6.178c-0.053,79.896-0.05,159.79-0.054,239.686c-0.996,0.053-1.99,0.152-2.986,0.152    C251.003,248.016,126.001,248.007,1,248C1,167.163,0.992,86.326,1.062,5.489C1.063,4.029-0.091,2.104,2,1z M368.03,234.995    c0.445,1.013,1.239,1.631,2.259,1.991c1.666,1.459,2.99,3.453,5.519,3.814c0-77.305,0-154.31,0-232.158    C323.8,42.447,272.379,75.87,220.965,109.288c0.828,2.106,2.498,3.041,3.854,4.194c23.068,19.648,46.158,39.272,69.275,58.862    c20.952,17.754,41.942,35.463,62.918,53.189C360.685,228.688,364.357,231.842,368.03,234.995z M11.97,234.995    c3.919-2.947,7.746-6,11.089-9.61c7.798-6.496,15.647-12.932,23.386-19.498c36.321-30.818,72.618-61.664,108.903-92.526    c4.27-3.631,4.22-3.715-0.604-6.853C105.883,74.741,57.023,42.974,8.142,11.239c-1.156-0.75-2.165-2.2-3.708-1.579    c0,77.125,0,154.121,0,231.372c2.47-1.099,3.919-2.695,5.401-4.252C10.828,236.521,11.556,235.945,11.97,234.995z     M366.505,239.741c-2.764-2.363-5.526-4.728-8.289-7.091c-1.209-1.133-2.372-2.319-3.635-3.392    c-49.713-42.245-99.442-84.471-149.147-126.726c-10.565-8.982-20.548-8.836-31.264,0.295    c-32.3,27.525-64.688,54.945-97.003,82.452c-18.497,15.743-36.921,31.573-55.378,47.364c-2.767,2.366-5.533,4.733-8.299,7.101    c-1.495,1.151-3.372,1.92-4.364,3.978c120.77,0,241.142,0,362.694,0C369.396,241.907,367.95,240.824,366.505,239.741z"/>
		<path fill="#D6E7EA" d="M1,248c125.001,0.007,250.003,0.016,375.004,0.016c0.996,0,1.99-0.101,2.986-0.152    c0.336,0.045,0.673,0.092,1.01,0.138c-0.897,2.063-2.699,0.938-3.993,0.94c-64.582,0.067-129.164,0.06-193.746,0.06    c-59.089,0-118.178,0.009-177.267-0.06C3.699,248.938,1.897,250.064,1,248z"/>
		<path fill="#5A6683" d="M380,248c-0.337-0.046-0.674-0.093-1.01-0.139c0.004-79.895,0.001-159.789,0.054-239.685    C379.045,6.116,378.199,3.823,380,2C380,84,380,166,380,248z"/>
		<path fill="#FEFEFE" d="M21.789,232.646c18.457-15.791,36.881-31.621,55.378-47.364c32.314-27.507,64.703-54.927,97.003-82.452    c10.716-9.132,20.697-9.277,31.264-0.295c49.705,42.255,99.436,84.48,149.147,126.726c1.263,1.071,2.426,2.259,3.635,3.392    c-1.276,1.931-3.272,1.326-5.021,1.328c-108.798,0.023-217.595,0.022-326.393-0.002C25.057,233.979,23.059,234.584,21.789,232.646    z"/>
		<path fill="#FDFDFD" d="M9.834,236.779c-1.481,1.558-2.931,3.154-5.4,4.253c0-77.251,0-154.247,0-231.372    c1.544-0.621,2.553,0.829,3.708,1.579c48.881,31.735,97.741,63.501,146.602,95.269c4.824,3.138,4.874,3.222,0.604,6.853    c-36.285,30.862-72.583,61.708-108.903,92.526c-7.738,6.566-15.588,13.002-23.387,19.497c-0.022-3.948-0.089-7.896-0.052-11.844    c0.023-2.524-1.021-2.959-2.94-1.59c-3.322,2.368-7.072,4.144-9.969,7.11C10.01,224.968,9.922,230.873,9.834,236.779z     M11.987,61.979c7.995-3.193,13.022-8.221,11.039-17.671c-0.2-0.956,0.078-2.004-0.045-2.986    c-0.502-3.997,1.818-10.559-1.141-11.393c-3.338-0.941-7.625,3.643-10.917,6.705c-2.363,8.435-0.717,17.013-0.797,25.523    C10.116,63.175,11.38,62.576,11.987,61.979z M10.989,107.962c3.086-1.942,6.213-3.821,9.236-5.855    c1.351-0.908,2.758-1.921,2.756-3.884c-0.006-7.311,0.013-14.622,0.005-21.933c-0.001-1.753-0.594-2.644-2.365-1.388    c-3.232,2.29-6.447,4.604-9.67,6.907c-2.474,7.274-0.47,14.766-1.036,22.137C9.811,105.3,9.221,107.012,10.989,107.962z     M10.953,172.818c-2.042,8.762-1.267,17.566-0.406,26.373c0.148-0.069,0.298-0.139,0.447-0.209    c3.355-2.145,6.69-4.322,10.077-6.42c1.429-0.883,1.975-2.027,1.958-3.707c-0.066-6.989-0.038-13.981-0.025-20.973    c0.004-2.135-0.393-3.438-2.776-1.695C17.16,168.43,14.047,170.609,10.953,172.818z M10.075,128.05    c-0.079,7.763-0.155,15.523-0.238,23.285c-0.035,3.31,1.239,2.313,2.672,0.82c4.034-1.812,9.464-3.32,10.135-7.743    c1.108-7.311,0.333-14.907,0.327-22.383c-0.001-1.833-0.977-2.58-2.508-1.488C16.985,123.021,12.948,124.736,10.075,128.05z"/>
		<path fill="#FEFEFE" d="M357.012,225.534c-20.976-17.728-41.966-35.437-62.918-53.189c-23.117-19.59-46.207-39.214-69.275-58.862    c-1.354-1.154-3.024-2.088-3.854-4.194C272.379,75.87,323.8,42.447,375.807,8.644c0,77.848,0,154.853,0,232.158    c-2.527-0.36-3.853-2.356-5.516-3.812c0.872-7.777,0.19-15.582,0.369-23.372c0.044-1.884-0.188-3.712-2.693-1.675    C362.672,215.148,355.473,216.82,357.012,225.534z M369.987,190.991c0.05-7.778,0.119-15.558,0.115-23.336    c0-0.705,0.676-2.173-1.172-1.824c-2.674,1.625-5.419,3.146-7.991,4.915c-1.433,0.986-3.731,1.513-3.766,3.643    c-0.134,8.303-0.055,16.608-0.055,25.893C362.031,196.686,366.573,194.663,369.987,190.991z M369.972,99.98    c0.054-7.785,0.128-15.57,0.13-23.356c0-0.714,0.667-2.184-1.188-1.825c-2.669,1.633-5.408,3.164-7.979,4.941    c-1.431,0.99-3.729,1.508-3.763,3.644c-0.13,8.304-0.055,16.612-0.055,25.836C362.037,105.693,366.562,103.65,369.972,99.98z     M369.076,146.359c2.468-7.846,0.429-15.895,1.062-23.824c0.074-0.932,0.172-2.027-1.105-2.41    c-8.722,3.621-14.309,9.155-11.988,19.557c0.142,0.631-0.053,1.332,0.029,1.985c0.505,3.991-1.771,10.582,1.105,11.383    C361.575,153.996,365.763,149.371,369.076,146.359z M368.846,29.689c-3.631,1.375-6.467,4.045-9.752,5.986    c-1.392,0.822-2.062,2.027-2.05,3.713c0.048,6.99,0.025,13.98,0.021,20.97c-0.002,2.123,0.619,3.523,2.864,1.858    c3.305-2.452,7.3-3.965,9.967-7.284c0.086-8.01,0.182-16.021,0.246-24.031C370.15,30.126,370.162,29.141,368.846,29.689z"/>
		<path fill="#F3F5F6" d="M21.789,232.646c1.27,1.938,3.268,1.332,5.015,1.332c108.797,0.023,217.595,0.024,326.393,0    c1.747,0,3.743,0.604,5.021-1.326c2.763,2.363,5.525,4.727,8.287,7.09c-1.934,1.188-4.062,1.275-6.261,1.275    c-113.496-0.021-226.994-0.021-340.491,0c-2.199,0-4.326-0.097-6.262-1.271C16.256,237.38,19.022,235.014,21.789,232.646z"/>
		<path fill="#FAFAFA" d="M13.49,239.746c1.936,1.175,4.062,1.271,6.261,1.271c113.498-0.021,226.995-0.021,340.491,0    c2.198,0,4.327-0.088,6.261-1.275c1.447,1.083,2.894,2.166,5.316,3.982c-121.553,0-241.925,0-362.694,0    C10.118,241.666,11.995,240.896,13.49,239.746z"/>
		<path fill="#E88B8F" d="M10.098,219.062c2.896-2.969,6.646-4.742,9.969-7.111c1.92-1.369,2.966-0.936,2.94,1.59    c-0.038,3.947,0.029,7.895,0.052,11.844c-3.343,3.611-7.169,6.664-11.088,9.611c-1.733-1.777-0.694-4.002-0.96-6.014    C10.574,225.688,11.942,222.229,10.098,219.062z"/>
		<path fill="#E88B8F" d="M357.012,225.534c-1.539-8.714,5.66-10.386,10.955-13.591c1.679,7.68,1.631,15.363,0.062,23.052    C364.357,231.842,360.685,228.688,357.012,225.534z"/>
		<path fill="#E2797F" d="M368.03,234.995c1.567-7.688,1.615-15.372-0.062-23.052c2.507-2.038,2.737-0.211,2.693,1.674    c-0.179,7.79,0.503,15.595-0.368,23.372C369.27,236.626,368.476,236.008,368.03,234.995z"/>
		<path fill="#E2797F" d="M10.098,219.062c1.844,3.166,0.477,6.627,0.912,9.92c0.266,2.012-0.773,4.235,0.96,6.014    c-0.415,0.949-1.143,1.525-2.135,1.784C9.922,230.873,10.01,224.968,10.098,219.062z"/>
		<path fill="#E98B8F" d="M10.075,128.05c2.874-3.312,6.909-5.029,10.388-7.509c1.531-1.092,2.506-0.346,2.508,1.488    c0.006,7.476,0.782,15.075-0.327,22.383c-0.671,4.423-6.101,5.932-10.137,7.743c-2.309-1.241-1.323-3.438-1.489-5.271    C10.45,140.62,12.102,134.245,10.075,128.05z"/>
		<path fill="#8CC0DA" d="M10.953,172.818c3.094-2.209,6.207-4.391,9.274-6.631c2.384-1.742,2.78-0.438,2.776,1.695    c-0.013,6.99-0.042,13.982,0.025,20.973c0.017,1.68-0.529,2.824-1.958,3.707c-3.386,2.098-6.722,4.275-10.077,6.42    C10.98,190.262,10.967,181.54,10.953,172.818z"/>
		<path fill="#8CC0DA" d="M10.951,81.81c3.223-2.304,6.438-4.617,9.67-6.907c1.771-1.256,2.363-0.366,2.365,1.388    c0.008,7.311-0.012,14.622-0.005,21.933c0.002,1.963-1.405,2.977-2.756,3.884c-3.022,2.034-6.149,3.913-9.234,5.855    C10.977,99.245,10.964,90.527,10.951,81.81z"/>
		<path fill="#E98B8F" d="M10.922,36.634c3.292-3.062,7.579-7.646,10.917-6.705c2.959,0.833,0.639,7.396,1.141,11.393    c0.123,0.982-0.155,2.03,0.045,2.986c1.984,9.45-3.043,14.478-11.039,17.671c-1.103-1.769-0.99-3.74-0.992-5.708    C10.988,49.725,10.949,43.179,10.922,36.634z"/>
		<path fill="#E5767C" d="M10.922,36.634c0.026,6.545,0.065,13.091,0.072,19.637c0.001,1.968-0.11,3.939,0.992,5.708    c-0.605,0.598-1.87,1.197-1.861,0.178C10.205,53.646,8.559,45.068,10.922,36.634z"/>
		<path fill="#E5767C" d="M10.075,128.05c2.026,6.195,0.375,12.57,0.942,18.836c0.166,1.831-0.818,4.028,1.489,5.271    c-1.432,1.492-2.706,2.488-2.67-0.82C9.92,143.573,9.996,135.812,10.075,128.05z"/>
		<path fill="#78B6D3" d="M10.953,172.818c0.014,8.722,0.026,17.442,0.042,26.164c-0.149,0.07-0.299,0.14-0.447,0.209    C9.687,190.386,8.912,181.58,10.953,172.818z"/>
		<path fill="#78B6D3" d="M10.951,81.81c0.013,8.717,0.025,17.435,0.039,26.152c-1.77-0.95-1.18-2.663-1.075-4.016    C10.481,96.576,8.478,89.084,10.951,81.81z"/>
		<path fill="#E98B8F" d="M369.897,54.932c-2.667,3.319-6.662,4.832-9.967,7.284c-2.245,1.666-2.866,0.265-2.864-1.858    c0.004-6.99,0.025-13.98-0.021-20.97c-0.013-1.686,0.658-2.891,2.05-3.713c3.285-1.941,6.121-4.611,9.753-5.984    c0.051,3.762-0.043,7.531,0.188,11.28C369.319,45.625,368.024,50.38,369.897,54.932z"/>
		<path fill="#E98B8F" d="M369.076,146.359c-3.313,3.012-7.501,7.637-10.896,6.69c-2.877-0.801-0.602-7.392-1.105-11.383    c-0.082-0.653,0.111-1.354-0.029-1.985c-2.319-10.401,3.268-15.937,11.988-19.558C369.048,128.87,369.062,137.615,369.076,146.359    z"/>
		<path fill="#8CC0DA" d="M369.972,99.98c-3.409,3.669-7.935,5.712-12.853,9.24c0-9.224-0.075-17.532,0.055-25.836    c0.032-2.136,2.332-2.654,3.763-3.644c2.569-1.777,5.31-3.308,7.979-4.94c0.028,4.165-0.129,8.34,0.137,12.488    C369.32,91.52,367.9,95.885,369.972,99.98z"/>
		<path fill="#8CC0DA" d="M369.987,190.991c-3.413,3.672-7.955,5.692-12.867,9.289c0-9.283-0.079-17.591,0.055-25.894    c0.033-2.129,2.333-2.654,3.766-3.642c2.572-1.771,5.317-3.29,7.991-4.913c0.021,4.494-0.138,9,0.124,13.48    C369.281,183.206,367.913,187.247,369.987,190.991z"/>
		<path fill="#E5767C" d="M369.076,146.359c-0.015-8.744-0.028-17.489-0.044-26.234c1.277,0.383,1.181,1.479,1.105,2.411    C369.505,130.466,371.544,138.516,369.076,146.359z"/>
		<path fill="#78B6D3" d="M369.987,190.991c-2.073-3.744-0.706-7.785-0.933-11.679c-0.263-4.479-0.103-8.985-0.124-13.479    c1.848-0.351,1.172,1.117,1.172,1.822C370.106,175.436,370.036,183.213,369.987,190.991z"/>
		<path fill="#E5767C" d="M369.897,54.932c-1.873-4.551-0.578-9.307-0.863-13.96c-0.229-3.75-0.137-7.519-0.188-11.28    c1.315-0.55,1.304,0.435,1.297,1.209C370.078,38.911,369.983,46.921,369.897,54.932z"/>
		<path fill="#78B6D3" d="M369.972,99.98c-2.071-4.095-0.651-8.46-0.921-12.691c-0.266-4.148-0.107-8.324-0.137-12.488    c1.854-0.36,1.188,1.11,1.188,1.824C370.1,84.41,370.025,92.195,369.972,99.98z"/>
	</g>
</g>
</svg>