<svg version="1.1" id="Layer_1" xmlns="http://www.w3.org/2000/svg" xmlns:xlink="http://www.w3.org/1999/xlink" x="0px" y="0px" width="380px" height="125px" viewBox="0 0 380 125" enable-background="new 0 0 380 125" xml:space="preserve">
<g>
	<path fill-rule="evenodd" clip-rule="evenodd" fill="#58607E" d="M381.061,6.204c-15.297,9.713-30.557,19.482-45.896,29.128   c-36.643,23.045-73.317,46.043-109.994,69.039c-9.969,6.25-20.057,12.315-29.935,18.702c-2.949,1.905-5.08,1.788-8.014-0.078   C126.958,84.651,66.63,46.407,6.285,8.19c-1.596-1.01-2.921-2.84-5.224-2.394c0.66-1.601-1.265-3.722,1.005-4.999   C3.349,2.408,5.152,1.735,6.72,1.737c122.909,0.165,245.818,0.297,368.727,0.389c1.547,0.001,3.363,0.762,4.62-0.923   C382.333,2.485,380.404,4.602,381.061,6.204z M372.774,6.406C251.07,6.276,130.803,6.147,9.543,6.017   c7.078,4.945,13.696,8.667,20.105,12.727c29.587,18.739,59.173,37.476,88.919,55.963c23.111,14.365,45.987,29.109,68.889,43.806   c2.658,1.706,4.572,1.594,7.132-0.118c9.101-6.087,18.563-11.626,27.81-17.468c30.994-19.58,61.915-39.267,93.184-58.406   c14.155-8.664,27.531-18.558,42.174-26.464C362.641,13.418,367.137,10.06,372.774,6.406z"/>
	<path fill-rule="evenodd" clip-rule="evenodd" fill="#AEC1D1" d="M380.066,1.203c-1.257,1.685-3.073,0.924-4.62,0.923   C252.538,2.034,129.628,1.901,6.72,1.737C5.152,1.735,3.349,2.408,2.066,0.797C128.066,0.933,254.066,1.067,380.066,1.203z"/>
	<path fill-rule="evenodd" clip-rule="evenodd" fill="#FEFEFE" d="M372.774,6.406c-5.638,3.654-10.134,7.012-15.019,9.65   c-14.643,7.906-28.019,17.8-42.174,26.464c-31.269,19.139-62.189,38.826-93.184,58.406c-9.246,5.842-18.709,11.381-27.81,17.468   c-2.561,1.712-4.474,1.824-7.132,0.118c-22.902-14.696-45.778-29.44-68.889-43.806C88.821,56.219,59.235,37.482,29.648,18.743   c-6.409-4.06-13.027-7.782-20.105-12.727C130.803,6.147,251.07,6.276,372.774,6.406z"/>
</g>
</svg>